{
	"asset":{
		"generator":"Khronos glTF Blender I/O v4.4.55",
		"version":"2.0"
	},
	"extensionsUsed":[
		"EXT_texture_webp"
	],
	"extensionsRequired":[
		"EXT_texture_webp"
	],
	"scene":0,
	"scenes":[
		{
			"name":"Scene",
			"nodes":[
				0
			]
		}
	],
	"nodes":[
		{
			"mesh":0,
			"name":"retopo"
		}
	],
	"materials":[
		{
			"emissiveFactor":[
				1,
				1,
				1
			],
			"emissiveTexture":{
				"index":0,
				"texCoord":0
			},
			"name":"baked.002",
			"pbrMetallicRoughness":{
				"baseColorTexture":{
					"index":1,
					"texCoord":0
				},
				"metallicRoughnessTexture":{
					"index":2,
					"texCoord":0
				}
			}
		}
	],
	"meshes":[
		{
			"name":"Cube.055",
			"primitives":[
				{
					"attributes":{
						"POSITION":0,
						"TEXCOORD_0":1,
						"TEXCOORD_1":2
					},
					"indices":3,
					"material":0
				}
			]
		}
	],
	"textures":[
		{
			"extensions":{
				"EXT_texture_webp":{
					"source":0
				}
			},
			"sampler":0
		},
		{
			"extensions":{
				"EXT_texture_webp":{
					"source":0
				}
			},
			"sampler":0
		},
		{
			"extensions":{
				"EXT_texture_webp":{
					"source":1
				}
			},
			"sampler":0
		}
	],
	"images":[
		{
			"mimeType":"image/webp",
			"name":"retopoBed_Baked",
			"uri":"texture/retopoBed_Baked.webp"
		},
		{
			"mimeType":"image/webp",
			"name":"retopoBed_Baked",
			"uri":"texture/retopoBed_Baked-1.webp"
		}
	],
	"accessors":[
		{
			"bufferView":0,
			"componentType":5126,
			"count":59764,
			"max":[
				1.75,
				2.5,
				1.70403254032135
			],
			"min":[
				-1.75,
				-4.359986633062363e-05,
				-1.5118074417114258
			],
			"type":"VEC3"
		},
		{
			"bufferView":1,
			"componentType":5126,
			"count":59764,
			"type":"VEC2"
		},
		{
			"bufferView":2,
			"componentType":5126,
			"count":59764,
			"type":"VEC2"
		},
		{
			"bufferView":3,
			"componentType":5123,
			"count":89922,
			"type":"SCALAR"
		}
	],
	"bufferViews":[
		{
			"buffer":0,
			"byteLength":717168,
			"byteOffset":0,
			"target":34962
		},
		{
			"buffer":0,
			"byteLength":478112,
			"byteOffset":717168,
			"target":34962
		},
		{
			"buffer":0,
			"byteLength":478112,
			"byteOffset":1195280,
			"target":34962
		},
		{
			"buffer":0,
			"byteLength":179844,
			"byteOffset":1673392,
			"target":34963
		}
	],
	"samplers":[
		{
			"magFilter":9729,
			"minFilter":9987
		}
	],
	"buffers":[
		{
			"byteLength":1853236,
			"uri":"test.bin"
		}
	]
}
